<?xml version="1.0" encoding="UTF-8" standalone="no"?>
<!-- Created with Inkscape (http://www.inkscape.org/) -->

<svg
   width="229.10289mm"
   height="116.57983mm"
   viewBox="0 0 229.10289 116.57982"
   version="1.1"
   id="svg1"
   xml:space="preserve"
   inkscape:version="1.3 (0e150ed6c4, 2023-07-21)"
   sodipodi:docname="logo.svg"
   inkscape:export-filename="logo.png"
   inkscape:export-xdpi="96"
   inkscape:export-ydpi="96"
   xmlns:inkscape="http://www.inkscape.org/namespaces/inkscape"
   xmlns:sodipodi="http://sodipodi.sourceforge.net/DTD/sodipodi-0.dtd"
   xmlns="http://www.w3.org/2000/svg"
   xmlns:svg="http://www.w3.org/2000/svg"><sodipodi:namedview
     id="namedview1"
     pagecolor="#ffffff"
     bordercolor="#000000"
     borderopacity="0.25"
     inkscape:showpageshadow="2"
     inkscape:pageopacity="0.0"
     inkscape:pagecheckerboard="0"
     inkscape:deskcolor="#d1d1d1"
     inkscape:document-units="mm"
     inkscape:zoom="1.0242632"
     inkscape:cx="297.77502"
     inkscape:cy="83.474637"
     inkscape:window-width="1920"
     inkscape:window-height="1009"
     inkscape:window-x="1912"
     inkscape:window-y="-8"
     inkscape:window-maximized="1"
     inkscape:current-layer="layer1" /><defs
     id="defs1"><rect
       x="429.40176"
       y="513.62524"
       width="229.19836"
       height="63.512798"
       id="rect5" /><rect
       x="78.700645"
       y="447.35101"
       width="64.0485"
       height="55.317265"
       id="rect4" /></defs><g
     inkscape:label="Layer 1"
     inkscape:groupmode="layer"
     id="layer1"
     transform="translate(-36.750895,-84.087661)"><path
       id="path3-5"
       style="fill:none;stroke:#000000;stroke-width:6.834;stroke-linecap:round;stroke-linejoin:bevel;stroke-dasharray:none;stroke-opacity:0.990881;paint-order:fill markers stroke"
       d="m 125.2905,117.88047 c 1.11347,19.8223 -15.42633,35.27741 -36.702496,35.94804 C 68.32784,154.46711 53.009757,137.70216 51.885511,117.88047 50.71192,97.188628 68.988403,81.094139 89.258627,81.094139 c 20.270223,0 34.690623,12.909019 36.031873,36.786331 z"
       sodipodi:nodetypes="sssss" /><path
       id="path3"
       style="fill:none;stroke:#666666;stroke-width:5.28100033;stroke-linecap:round;stroke-linejoin:bevel;stroke-dasharray:none;stroke-opacity:0.990881;paint-order:fill markers stroke"
       d="m 125.2904,117.88046 c 1.11347,19.82231 -15.42634,35.27742 -36.702494,35.94804 -20.260164,0.6386 -35.57825,-16.12634 -36.702492,-35.94804 -1.173594,-20.691842 17.102889,-36.786327 37.373114,-36.786328 20.270222,0 34.690622,12.909016 36.031872,36.786328 z"
       sodipodi:nodetypes="sssss" /><path
       style="fill:#000000;fill-opacity:0.990881;stroke:#000000;stroke-width:1.73504;stroke-linecap:round;stroke-linejoin:bevel;stroke-dasharray:none;stroke-opacity:0.99088103;paint-order:fill markers stroke"
       d="m 99.275439,125.07663 c 2.012041,4.41439 3.159981,-6.95383 1.482221,-10.56078 -3.056508,-6.57106 -8.615919,-10.62668 -10.375507,-11.20925 -1.759586,-0.58256 -10.746056,-2.13068 -17.601298,5.09512 -6.855243,7.22579 -1.852769,21.49211 -1.852769,21.49211 0,0 3.890815,12.96938 17.786577,27.97681 13.895767,15.00742 9.806332,15.62036 7.225801,22.78905 -2.580537,7.16868 -10.746062,13.33993 -7.225801,16.11908 6.137024,4.84502 9.819671,2.4086 9.819671,2.4086 0,0 10.993056,-8.0738 8.893286,-23.34488 -2.03804,-14.82215 -22.885861,-31.54569 -27.235692,-40.39035 -4.349831,-8.84466 -5.997313,-15.01559 -1.505374,-19.06036 4.491939,-4.04477 18.576847,4.27046 20.588885,8.68485 z"
       id="path4"
       sodipodi:nodetypes="zszscszscszzz"
       clip-path="none" /><path
       d="m 85.421172,487.63728 h 8.544 c -1.392,-13.2 -1.968,-27.84 -1.392,-40.656 h -6.864 c 0.528,5.232 1.392,24.816 -0.288,40.656 z m 34.462488,-15.504 c -0.48,-6.912 -3.744,-11.232 -9.744,-11.232 -3.648,0 -5.472,1.584 -7.728,2.64 l -0.816,-2.112 h -3.168001 l -1.92,26.208 h 7.104001 l -0.672,-14.592 c -0.192,-4.32 1.44,-8.064 6.72,-8.064 3.84,0 5.28,2.208 5.136,6.864 l -0.528,15.792 h 6.672 z"
       id="text4"
       style="font-size:48px;font-family:OpenDyslexic;-inkscape-font-specification:OpenDyslexic;letter-spacing:-10.5615px;word-spacing:0px;white-space:pre;fill:#ffffff;fill-opacity:0.990881;stroke:#000000;stroke-width:0.755906;stroke-linecap:round;stroke-linejoin:bevel;stroke-opacity:0.990881;paint-order:fill markers stroke"
       transform="matrix(1.2525874,0,0,1.2525874,-69.77581,-447.45621)"
       aria-label="In"
       clip-path="none" /><path
       d="m 446.73567,554.01355 c 1.44,3.46666 5.06666,5.17333 9.33332,5.17333 8.42667,0 11.94666,-7.52 11.94666,-15.89333 0,-8.79999 -4.85333,-14.18665 -11.94666,-14.39999 -4.26666,-0.10666 -7.35999,1.65333 -9.33332,5.12 l -0.96,-4 h -4.8 l 0.85333,15.73333 -4.26666,23.94665 6.87999,-0.42667 z m 16.58665,-11.73333 c 0.21334,5.65333 -1.22666,8.96 -6.29333,8.96 -5.06666,0 -8.90666,-3.30667 -8.90666,-8.96 0,-5.65333 4.21333,-9.11999 8.64,-9.11999 4.42666,0 6.34666,3.46666 6.55999,9.11999 z m 36.10027,-0.69333 c -1.70667,-9.65333 -7.09333,-13.65333 -13.06666,-14.13333 -8.79999,0 -14.50666,7.09333 -14.87999,16.63999 0,9.22666 6.4,15.03999 15.67999,15.03999 3.78666,0 7.25333,-0.74666 10.71999,-2.23999 v -6.61333 c -4.10666,1.76 -6.61333,2.18666 -10.55999,1.76 -7.52,-0.8 -10.98666,-3.89334 -10.98666,-8.96 z m -22.39999,-2.61333 c 0,-3.52 3.89333,-7.57333 9.33333,-7.94667 5.54666,-0.37333 7.2,3.04 7.73333,6.29333 z m 45.32688,-10.08 c -1.12,-0.37333 -4.10666,-0.69333 -6.66666,-0.64 -9.01333,0.21334 -12.79999,5.01333 -12.79999,15.57333 0,9.38666 3.35999,14.18665 14.39999,14.93332 3.25333,0.21333 6.61333,-0.16 9.11999,-1.65333 l -5.01333,-5.44 c -5.59999,2.77333 -12.58666,-0.90666 -13.11999,-7.83999 0,-7.94667 3.30667,-11.09333 8.48,-11.14666 1.49333,0 3.89333,0.26666 5.59999,0.8 z m 15.8869,17.70666 0.53333,-13.81333 h 9.01333 l -0.96,-3.57333 h -7.94666 l 0.37333,-10.13333 -5.54666,3.2 c -0.21333,2.34667 -0.37333,4.64 -0.53333,6.93333 h -5.49333 l -1.54667,3.57333 h 6.82666 c -0.8,12.05333 -1.12,21.91999 -1.12,22.93332 0,0.37334 0.21334,2.66667 2.02667,2.66667 2.50667,0 11.89333,0 13.86666,-0.10667 l -1.01333,-6.82666 c -8.48,-0.21333 -8.64,-0.10667 -8.48,-4.85333 z m 31.03355,-17.49332 c -6.18666,0.32 -7.67999,1.11999 -10.61332,3.35999 v -3.14666 h -4.96 c 0,12.15999 -0.26667,18.61332 -2.45333,29.06665 h 9.65333 c -1.54667,-8.74666 -1.22667,-12.15999 -1.22667,-15.25333 0,-5.17333 0.96,-9.27999 10.39999,-7.30666 z m 30.60689,12.47999 c -1.70667,-9.65333 -7.09333,-13.65333 -13.06666,-14.13333 -8.8,0 -14.50666,7.09333 -14.87999,16.63999 0,9.22666 6.39999,15.03999 15.67999,15.03999 3.78666,0 7.25333,-0.74666 10.71999,-2.23999 v -6.61333 c -4.10666,1.76 -6.61333,2.18666 -10.55999,1.76 -7.52,-0.8 -10.98666,-3.89334 -10.98666,-8.96 z m -22.39999,-2.61333 c 0,-3.52 3.89333,-7.57333 9.33333,-7.94667 5.54666,-0.37333 7.19999,3.04 7.73333,6.29333 z"
       id="text5"
       style="font-size:53.3333px;font-family:OpenDyslexic;-inkscape-font-specification:OpenDyslexic;letter-spacing:-9.65978px;word-spacing:0px;white-space:pre;fill:#ff7f00;fill-opacity:0.990881;stroke:#000000;stroke-width:0.755906;stroke-linecap:round;stroke-linejoin:bevel;stroke-opacity:0.990881;paint-order:fill markers stroke"
       transform="matrix(1.0215296,0,0,1.0215296,-347.31834,-411.47066)"
       aria-label="pectre" /></g></svg>
